<svg xmlns="http://www.w3.org/2000/svg" xmlns:xlink="http://www.w3.org/1999/xlink" width="500" height="500" viewBox="0 0 500 500" fill="none"><path     fill="#32CB8F"  d="M90 -5.02105e-14L410 -5.02105e-14C459.706 -5.02105e-14 500 40.2944 500 90L500 410C500 459.706 459.706 500 410 500L90 500C40.2944 500 -8.44466e-14 459.706 -7.53158e-14 410L2.51053e-14 90C2.81489e-14 40.2944 40.2944 -5.62977e-14 90 -5.02105e-14Z"></path><path d="M249.999 85.55L414.449 249.999L320.474 249.999L320.474 346.324C296.974 367.474 273.474 390.949 249.999 414.449L85.55 249.999L249.999 85.55ZM181.875 249.999L249.999 318.124L249.999 249.999L318.124 249.999C296.6 226.107 273.892 203.399 249.999 181.875C226.107 203.399 203.399 226.107 181.875 249.999Z"   fill="#FFFFFF" ></path></svg>